<?xml version="1.0" standalone="no"?>
<!DOCTYPE svg PUBLIC "-//W3C//DTD SVG 20010904//EN"
 "http://www.w3.org/TR/2001/REC-SVG-20010904/DTD/svg10.dtd">
<svg version="1.0" xmlns="http://www.w3.org/2000/svg"
 width="512.000000pt" height="512.000000pt" viewBox="0 0 512.000000 512.000000"
 preserveAspectRatio="xMidYMid meet">
<metadata>
Created by potrace 1.14, written by Peter Selinger 2001-2017
</metadata>
<g transform="translate(0.000000,512.000000) scale(0.100000,-0.100000)"
fill="#000000" stroke="none">
<path d="M2450 4782 c-30 -11 -133 -65 -229 -121 -95 -55 -176 -101 -179 -101
-3 0 -13 -6 -21 -14 -9 -7 -38 -26 -66 -41 -95 -51 -660 -378 -687 -396 -15
-11 -29 -19 -31 -19 -3 0 -55 -29 -117 -65 l-112 -65 -31 26 c-58 49 -114 67
-207 68 -73 1 -93 -3 -141 -27 -66 -32 -132 -99 -162 -165 -34 -73 -31 -199 5
-273 36 -72 98 -133 165 -161 l53 -22 2 -835 3 -836 26 -55 c46 -99 91 -136
314 -260 22 -12 92 -53 155 -90 63 -37 309 -178 545 -315 237 -136 445 -256
462 -267 30 -18 33 -23 29 -65 -21 -286 293 -462 528 -296 82 58 128 154 130
271 l1 72 60 36 c33 20 80 47 105 61 25 13 59 33 75 43 17 10 46 27 65 38 19
10 76 42 125 71 50 29 108 63 130 76 22 12 170 98 329 190 159 92 310 179 335
193 163 90 207 124 251 187 64 94 62 64 64 962 l1 815 53 22 c67 27 138 96
171 166 36 75 37 202 3 271 -37 74 -87 125 -158 160 -57 28 -77 33 -143 33
-62 0 -87 -5 -136 -28 -33 -15 -70 -36 -82 -47 -18 -18 -24 -19 -45 -8 -12 6
-180 103 -373 214 -192 112 -366 211 -385 222 -19 11 -165 95 -324 187 -159
92 -305 174 -325 182 -58 25 -167 27 -231 6z m407 -287 c131 -76 256 -148 279
-161 22 -12 151 -87 285 -165 134 -78 267 -154 294 -170 28 -15 108 -61 179
-102 l129 -75 2 -94 c1 -79 5 -100 27 -143 33 -64 90 -120 153 -152 28 -14 52
-27 54 -29 2 -2 3 -368 3 -814 0 -803 0 -810 -21 -853 -12 -23 -32 -50 -46
-59 -27 -20 -436 -258 -442 -258 -2 0 -24 -13 -48 -30 -24 -16 -45 -30 -48
-30 -2 0 -114 -64 -248 -141 -134 -78 -262 -152 -284 -164 -22 -13 -103 -59
-179 -103 l-139 -81 -40 35 c-116 99 -293 101 -416 4 l-48 -38 -449 260 c-247
143 -467 270 -490 283 -231 130 -434 252 -457 273 -59 56 -57 22 -57 908 0
542 3 814 10 814 6 0 29 9 53 20 124 59 196 187 184 329 l-5 66 165 95 c209
120 214 123 413 238 260 150 552 318 590 340 19 10 78 44 130 74 116 67 113
66 177 63 46 -2 77 -17 290 -140z m-2003 -620 c76 -36 108 -153 64 -230 -27
-47 -94 -85 -148 -85 -59 0 -122 38 -147 90 -46 90 -17 181 70 225 56 28 101
28 161 0z m3553 14 c43 -16 92 -69 104 -112 38 -142 -103 -264 -235 -202 -87
41 -121 168 -66 248 43 64 128 92 197 66z m-1805 -3073 c33 -7 84 -50 102 -85
45 -86 9 -192 -78 -232 -52 -24 -90 -23 -143 0 -111 51 -129 204 -33 285 18
14 44 29 58 32 15 3 32 7 37 8 6 2 15 2 20 0 6 -1 22 -5 37 -8z"/>
<path d="M2520 3691 c-19 -10 -154 -89 -300 -176 -146 -87 -337 -200 -425
-252 -88 -52 -170 -105 -183 -117 l-23 -23 0 -548 c0 -633 -12 -567 114 -643
42 -26 185 -114 317 -197 132 -82 248 -154 258 -160 9 -5 71 -43 136 -84 73
-45 130 -74 147 -74 15 0 60 21 105 49 42 27 92 58 110 69 233 140 733 462
743 477 10 17 13 136 13 566 l0 545 -24 23 c-28 27 -902 552 -932 559 -12 3
-37 -3 -56 -14z m292 -307 c133 -81 252 -152 263 -158 85 -48 215 -130 214
-135 -1 -10 -719 -436 -731 -433 -31 9 -729 435 -721 442 7 6 452 271 538 320
17 9 64 38 105 63 41 26 78 47 82 47 3 0 116 -66 250 -146z m-667 -669 c181
-108 332 -200 335 -205 10 -17 4 -865 -7 -863 -5 1 -156 93 -334 204 -178 111
-339 211 -356 221 -31 19 -33 23 -33 81 -1 131 -1 479 0 635 l0 164 33 -20
c17 -11 180 -108 362 -217z m1226 -195 c0 -256 -3 -425 -9 -429 -55 -35 -398
-250 -417 -261 -14 -8 -83 -52 -155 -97 -72 -46 -134 -83 -138 -83 -4 0 -7
194 -7 431 l0 431 80 49 c483 292 640 386 643 384 1 -1 3 -193 3 -425z"/>
</g>
</svg>
